solid VAWT1
   facet normal 3.377571e-002 -9.994294e-001 0.000000e+000
      outer loop
         vertex -2.412184e-014 3.000000e+002 -1.500000e+002
         vertex -2.412184e-014 3.000000e+002 1.500000e+002
         vertex -1.518172e+001 2.992297e+002 -1.500000e+002
      endloop
   endfacet
   facet normal 6.755142e-002 -9.977158e-001 0.000000e+000
      outer loop
         vertex -1.518172e+001 2.992297e+002 -1.500000e+002
         vertex -2.412184e-014 3.000000e+002 1.500000e+002
         vertex -1.518172e+001 2.992297e+002 1.500000e+002
      endloop
   endfacet
   facet normal 1.347559e-001 -9.908788e-001 0.000000e+000
      outer loop
         vertex -1.518172e+001 2.992297e+002 -1.500000e+002
         vertex -1.518172e+001 2.992297e+002 1.500000e+002
         vertex -3.020751e+001 2.969269e+002 -1.500000e+002
      endloop
   endfacet
   facet normal 1.681848e-001 -9.857555e-001 0.000000e+000
      outer loop
         vertex -3.020751e+001 2.969269e+002 -1.500000e+002
         vertex -1.518172e+001 2.992297e+002 1.500000e+002
         vertex -3.020751e+001 2.969269e+002 1.500000e+002
      endloop
   endfacet
   facet normal 2.343522e-001 -9.721518e-001 0.000000e+000
      outer loop
         vertex -3.020751e+001 2.969269e+002 -1.500000e+002
         vertex -3.020751e+001 2.969269e+002 1.500000e+002
         vertex -4.492307e+001 2.931151e+002 -1.500000e+002
      endloop
   endfacet
   facet normal 2.670908e-001 -9.636713e-001 0.000000e+000
      outer loop
         vertex -4.492307e+001 2.931151e+002 -1.500000e+002
         vertex -3.020751e+001 2.969269e+002 1.500000e+002
         vertex -4.492307e+001 2.931151e+002 1.500000e+002
      endloop
   endfacet
   facet normal 3.315417e-001 -9.434406e-001 0.000000e+000
      outer loop
         vertex -4.492307e+001 2.931151e+002 -1.500000e+002
         vertex -4.492307e+001 2.931151e+002 1.500000e+002
         vertex -5.917727e+001 2.878334e+002 -1.500000e+002
      endloop
   endfacet
   facet normal 3.632539e-001 -9.316902e-001 0.000000e+000
      outer loop
         vertex -5.917727e+001 2.878334e+002 -1.500000e+002
         vertex -4.492307e+001 2.931151e+002 1.500000e+002
         vertex -5.917727e+001 2.878334e+002 1.500000e+002
      endloop
   endfacet
   facet normal 4.253262e-001 -9.050401e-001 0.000000e+000
      outer loop
         vertex -5.917727e+001 2.878334e+002 -1.500000e+002
         vertex -5.917727e+001 2.878334e+002 1.500000e+002
         vertex -7.282371e+001 2.811362e+002 -1.500000e+002
      endloop
   endfacet
   facet normal 4.556863e-001 -8.901405e-001 0.000000e+000
      outer loop
         vertex -7.282371e+001 2.811362e+002 -1.500000e+002
         vertex -5.917727e+001 2.878334e+002 1.500000e+002
         vertex -7.282371e+001 2.811362e+002 1.500000e+002
      endloop
   endfacet
   facet normal 5.147425e-001 -8.573448e-001 0.000000e+000
      outer loop
         vertex -7.282371e+001 2.811362e+002 -1.500000e+002
         vertex -7.282371e+001 2.811362e+002 1.500000e+002
         vertex -8.572224e+001 2.730923e+002 -1.500000e+002
      endloop
   endfacet
   facet normal 5.434387e-001 -8.394489e-001 0.000000e+000
      outer loop
         vertex -8.572224e+001 2.730923e+002 -1.500000e+002
         vertex -7.282371e+001 2.811362e+002 1.500000e+002
         vertex -8.572224e+001 2.730923e+002 1.500000e+002
      endloop
   endfacet
   facet normal 5.988724e-001 -8.008445e-001 0.000000e+000
      outer loop
         vertex -8.572224e+001 2.730923e+002 -1.500000e+002
         vertex -8.572224e+001 2.730923e+002 1.500000e+002
         vertex -9.774039e+001 2.637841e+002 -1.500000e+002
      endloop
   endfacet
   facet normal 6.256099e-001 -7.801360e-001 0.000000e+000
      outer loop
         vertex -9.774039e+001 2.637841e+002 -1.500000e+002
         vertex -8.572224e+001 2.730923e+002 1.500000e+002
         vertex -9.774039e+001 2.637841e+002 1.500000e+002
      endloop
   endfacet
   facet normal 6.768518e-001 -7.361193e-001 0.000000e+000
      outer loop
         vertex -9.774039e+001 2.637841e+002 -1.500000e+002
         vertex -9.774039e+001 2.637841e+002 1.500000e+002
         vertex -1.087547e+002 2.533073e+002 -1.500000e+002
      endloop
   endfacet
   facet normal 7.013560e-001 -7.128111e-001 0.000000e+000
      outer loop
         vertex -1.087547e+002 2.533073e+002 -1.500000e+002
         vertex -9.774039e+001 2.637841e+002 1.500000e+002
         vertex -1.087547e+002 2.533073e+002 1.500000e+002
      endloop
   endfacet
   facet normal 7.478797e-001 -6.638342e-001 0.000000e+000
      outer loop
         vertex -1.087547e+002 2.533073e+002 -1.500000e+002
         vertex -1.087547e+002 2.533073e+002 1.500000e+002
         vertex -1.186522e+002 2.417696e+002 -1.500000e+002
      endloop
   endfacet
   facet normal 7.698992e-001 -6.381655e-001 0.000000e+000
      outer loop
         vertex -1.186522e+002 2.417696e+002 -1.500000e+002
         vertex -1.087547e+002 2.533073e+002 1.500000e+002
         vertex -1.186522e+002 2.417696e+002 1.500000e+002
      endloop
   endfacet
   facet normal 8.112270e-001 -5.847315e-001 0.000000e+000
      outer loop
         vertex -1.186522e+002 2.417696e+002 -1.500000e+002
         vertex -1.186522e+002 2.417696e+002 1.500000e+002
         vertex -1.273310e+002 2.292894e+002 -1.500000e+002
      endloop
   endfacet
   facet normal 8.305354e-001 -5.569659e-001 0.000000e+000
      outer loop
         vertex -1.273310e+002 2.292894e+002 -1.500000e+002
         vertex -1.186522e+002 2.417696e+002 1.500000e+002
         vertex -1.273310e+002 2.292894e+002 1.500000e+002
      endloop
   endfacet
   facet normal 8.662428e-001 -4.996233e-001 0.000000e+000
      outer loop
         vertex -1.273310e+002 2.292894e+002 -1.500000e+002
         vertex -1.273310e+002 2.292894e+002 1.500000e+002
         vertex -1.347021e+002 2.159949e+002 -1.500000e+002
      endloop
   endfacet
   facet normal 8.826418e-001 -4.700462e-001 0.000000e+000
      outer loop
         vertex -1.347021e+002 2.159949e+002 -1.500000e+002
         vertex -1.273310e+002 2.292894e+002 1.500000e+002
         vertex -1.347021e+002 2.159949e+002 1.500000e+002
      endloop
   endfacet
   facet normal 9.123622e-001 -4.093840e-001 0.000000e+000
      outer loop
         vertex -1.347021e+002 2.159949e+002 -1.500000e+002
         vertex -1.347021e+002 2.159949e+002 1.500000e+002
         vertex -1.406899e+002 2.020226e+002 -1.500000e+002
      endloop
   endfacet
   facet normal 9.256834e-001 -3.782990e-001 0.000000e+000
      outer loop
         vertex -1.406899e+002 2.020226e+002 -1.500000e+002
         vertex -1.347021e+002 2.159949e+002 1.500000e+002
         vertex -1.406899e+002 2.020226e+002 1.500000e+002
      endloop
   endfacet
   facet normal 9.491115e-001 -3.149404e-001 0.000000e+000
      outer loop
         vertex -1.406899e+002 2.020226e+002 -1.500000e+002
         vertex -1.406899e+002 2.020226e+002 1.500000e+002
         vertex -1.452327e+002 1.875161e+002 -1.500000e+002
      endloop
   endfacet
   facet normal 9.592182e-001 -2.826667e-001 0.000000e+000
      outer loop
         vertex -1.452327e+002 1.875161e+002 -1.500000e+002
         vertex -1.406899e+002 2.020226e+002 1.500000e+002
         vertex -1.452327e+002 1.875161e+002 1.500000e+002
      endloop
   endfacet
   facet normal 9.761133e-001 -2.172622e-001 0.000000e+000
      outer loop
         vertex -1.452327e+002 1.875161e+002 -1.500000e+002
         vertex -1.452327e+002 1.875161e+002 1.500000e+002
         vertex -1.482840e+002 1.726242e+002 -1.500000e+002
      endloop
   endfacet
   facet normal 9.829016e-001 -1.841313e-001 0.000000e+000
      outer loop
         vertex -1.482840e+002 1.726242e+002 -1.500000e+002
         vertex -1.452327e+002 1.875161e+002 1.500000e+002
         vertex -1.482840e+002 1.726242e+002 1.500000e+002
      endloop
   endfacet
   facet normal 9.930903e-001 -1.173527e-001 0.000000e+000
      outer loop
         vertex -1.482840e+002 1.726242e+002 -1.500000e+002
         vertex -1.482840e+002 1.726242e+002 1.500000e+002
         vertex -1.498124e+002 1.575000e+002 -1.500000e+002
      endloop
   endfacet
   facet normal 9.964906e-001 -8.370494e-002 0.000000e+000
      outer loop
         vertex -1.498124e+002 1.575000e+002 -1.500000e+002
         vertex -1.482840e+002 1.726242e+002 1.500000e+002
         vertex -1.498124e+002 1.575000e+002 1.500000e+002
      endloop
   endfacet
   facet normal 9.998681e-001 -1.623801e-002 0.000000e+000
      outer loop
         vertex -1.498124e+002 1.575000e+002 -1.500000e+002
         vertex -1.498124e+002 1.575000e+002 1.500000e+002
         vertex -1.498022e+002 1.422988e+002 -1.500000e+002
      endloop
   endfacet
   facet normal 9.998454e-001 1.758114e-002 0.000000e+000
      outer loop
         vertex -1.498022e+002 1.422988e+002 -1.500000e+002
         vertex -1.498124e+002 1.575000e+002 1.500000e+002
         vertex -1.498022e+002 1.422988e+002 1.500000e+002
      endloop
   endfacet
   facet normal 9.963773e-001 8.504347e-002 0.000000e+000
      outer loop
         vertex -1.498022e+002 1.422988e+002 -1.500000e+002
         vertex -1.498022e+002 1.422988e+002 1.500000e+002
         vertex -1.482535e+002 1.271766e+002 -1.500000e+002
      endloop
   endfacet
   facet normal 9.929318e-001 1.186866e-001 0.000000e+000
      outer loop
         vertex -1.482535e+002 1.271766e+002 -1.500000e+002
         vertex -1.498022e+002 1.422988e+002 1.500000e+002
         vertex -1.482535e+002 1.271766e+002 1.500000e+002
      endloop
   endfacet
   facet normal 9.826534e-001 1.854515e-001 0.000000e+000
      outer loop
         vertex -1.482535e+002 1.271766e+002 -1.500000e+002
         vertex -1.482535e+002 1.271766e+002 1.500000e+002
         vertex -1.451822e+002 1.122889e+002 -1.500000e+002
      endloop
   endfacet
   facet normal 9.758205e-001 2.185732e-001 0.000000e+000
      outer loop
         vertex -1.451822e+002 1.122889e+002 -1.500000e+002
         vertex -1.482535e+002 1.271766e+002 1.500000e+002
         vertex -1.451822e+002 1.122889e+002 1.500000e+002
      endloop
   endfacet
   facet normal 9.588376e-001 2.839549e-001 0.000000e+000
      outer loop
         vertex -1.451822e+002 1.122889e+002 -1.500000e+002
         vertex -1.451822e+002 1.122889e+002 1.500000e+002
         vertex -1.406199e+002 9.778841e+001 -1.500000e+002
      endloop
   endfacet
   facet normal 9.486875e-001 3.162150e-001 0.000000e+000
      outer loop
         vertex -1.406199e+002 9.778841e+001 -1.500000e+002
         vertex -1.451822e+002 1.122889e+002 1.500000e+002
         vertex -1.406199e+002 9.778841e+001 1.500000e+002
      endloop
   endfacet
   facet normal 9.251745e-001 3.795422e-001 0.000000e+000
      outer loop
         vertex -1.406199e+002 9.778841e+001 -1.500000e+002
         vertex -1.406199e+002 9.778841e+001 1.500000e+002
         vertex -1.346134e+002 8.382419e+001 -1.500000e+002
      endloop
   endfacet
   facet normal 9.118114e-001 4.106092e-001 0.000000e+000
      outer loop
         vertex -1.346134e+002 8.382419e+001 -1.500000e+002
         vertex -1.406199e+002 9.778841e+001 1.500000e+002
         vertex -1.346134e+002 8.382419e+001 1.500000e+002
      endloop
   endfacet
   facet normal 8.820096e-001 4.712314e-001 0.000000e+000
      outer loop
         vertex -1.346134e+002 8.382419e+001 -1.500000e+002
         vertex -1.346134e+002 8.382419e+001 1.500000e+002
         vertex -1.272244e+002 7.053960e+001 -1.500000e+002
      endloop
   endfacet
   facet normal 8.655708e-001 5.007865e-001 0.000000e+000
      outer loop
         vertex -1.272244e+002 7.053960e+001 -1.500000e+002
         vertex -1.346134e+002 8.382419e+001 1.500000e+002
         vertex -1.272244e+002 7.053960e+001 1.500000e+002
      endloop
   endfacet
   facet normal 8.297864e-001 5.580811e-001 0.000000e+000
      outer loop
         vertex -1.272244e+002 7.053960e+001 -1.500000e+002
         vertex -1.272244e+002 7.053960e+001 1.500000e+002
         vertex -1.185288e+002 5.807106e+001 -1.500000e+002
      endloop
   endfacet
   facet normal 8.104408e-001 5.858206e-001 0.000000e+000
      outer loop
         vertex -1.185288e+002 5.807106e+001 -1.500000e+002
         vertex -1.272244e+002 7.053960e+001 1.500000e+002
         vertex -1.185288e+002 5.807106e+001 1.500000e+002
      endloop
   endfacet
   facet normal 7.690412e-001 6.391991e-001 0.000000e+000
      outer loop
         vertex -1.185288e+002 5.807106e+001 -1.500000e+002
         vertex -1.185288e+002 5.807106e+001 1.500000e+002
         vertex -1.086159e+002 4.654666e+001 -1.500000e+002
      endloop
   endfacet
   facet normal 7.469873e-001 6.648383e-001 0.000000e+000
      outer loop
         vertex -1.086159e+002 4.654666e+001 -1.500000e+002
         vertex -1.185288e+002 5.807106e+001 1.500000e+002
         vertex -1.086159e+002 4.654666e+001 1.500000e+002
      endloop
   endfacet
   facet normal 7.003979e-001 7.137526e-001 0.000000e+000
      outer loop
         vertex -1.086159e+002 4.654666e+001 -1.500000e+002
         vertex -1.086159e+002 4.654666e+001 1.500000e+002
         vertex -9.758745e+001 3.608473e+001 -1.500000e+002
      endloop
   endfacet
   facet normal 6.758623e-001 7.370279e-001 0.000000e+000
      outer loop
         vertex -9.758745e+001 3.608473e+001 -1.500000e+002
         vertex -1.086159e+002 4.654666e+001 1.500000e+002
         vertex -9.758745e+001 3.608473e+001 1.500000e+002
      endloop
   endfacet
   facet normal 6.245614e-001 7.809757e-001 0.000000e+000
      outer loop
         vertex -9.758745e+001 3.608473e+001 -1.500000e+002
         vertex -9.758745e+001 3.608473e+001 1.500000e+002
         vertex -8.555682e+001 2.679272e+001 -1.500000e+002
      endloop
   endfacet
   facet normal 5.977961e-001 8.016482e-001 0.000000e+000
      outer loop
         vertex -8.555682e+001 2.679272e+001 -1.500000e+002
         vertex -9.758745e+001 3.608473e+001 1.500000e+002
         vertex -8.555682e+001 2.679272e+001 1.500000e+002
      endloop
   endfacet
   facet normal 5.423106e-001 8.401781e-001 0.000000e+000
      outer loop
         vertex -8.555682e+001 2.679272e+001 -1.500000e+002
         vertex -8.555682e+001 2.679272e+001 1.500000e+002
         vertex -7.264748e+001 1.876608e+001 -1.500000e+002
      endloop
   endfacet
   facet normal 5.135903e-001 8.580356e-001 0.000000e+000
      outer loop
         vertex -7.264748e+001 1.876608e+001 -1.500000e+002
         vertex -8.555682e+001 2.679272e+001 1.500000e+002
         vertex -7.264748e+001 1.876608e+001 1.500000e+002
      endloop
   endfacet
   facet normal 4.544901e-001 8.907518e-001 0.000000e+000
      outer loop
         vertex -7.264748e+001 1.876608e+001 -1.500000e+002
         vertex -7.264748e+001 1.876608e+001 1.500000e+002
         vertex -5.899206e+001 1.208721e+001 -1.500000e+002
      endloop
   endfacet
   facet normal 4.241101e-001 9.056107e-001 0.000000e+000
      outer loop
         vertex -5.899206e+001 1.208721e+001 -1.500000e+002
         vertex -7.264748e+001 1.876608e+001 1.500000e+002
         vertex -5.899206e+001 1.208721e+001 1.500000e+002
      endloop
   endfacet
   facet normal 3.620020e-001 9.321773e-001 0.000000e+000
      outer loop
         vertex -5.899206e+001 1.208721e+001 -1.500000e+002
         vertex -5.899206e+001 1.208721e+001 1.500000e+002
         vertex -4.473078e+001 6.824733e+000 -1.500000e+002
      endloop
   endfacet
   facet normal 3.302740e-001 9.438851e-001 0.000000e+000
      outer loop
         vertex -4.473078e+001 6.824733e+000 -1.500000e+002
         vertex -5.899206e+001 1.208721e+001 1.500000e+002
         vertex -4.473078e+001 6.824733e+000 1.500000e+002
      endloop
   endfacet
   facet normal 2.657961e-001 9.640293e-001 0.000000e+000
      outer loop
         vertex -4.473078e+001 6.824733e+000 -1.500000e+002
         vertex -4.473078e+001 6.824733e+000 1.500000e+002
         vertex -3.001011e+001 3.032681e+000 -1.500000e+002
      endloop
   endfacet
   facet normal 2.330461e-001 9.724657e-001 0.000000e+000
      outer loop
         vertex -3.001011e+001 3.032681e+000 -1.500000e+002
         vertex -4.473078e+001 6.824733e+000 1.500000e+002
         vertex -3.001011e+001 3.032681e+000 1.500000e+002
      endloop
   endfacet
   facet normal 1.668604e-001 9.859805e-001 0.000000e+000
      outer loop
         vertex -3.001011e+001 3.032681e+000 -1.500000e+002
         vertex -3.001011e+001 3.032681e+000 1.500000e+002
         vertex -1.498124e+001 7.500000e-001 -1.500000e+002
      endloop
   endfacet
   facet normal 1.334248e-001 9.910589e-001 0.000000e+000
      outer loop
         vertex -1.498124e+001 7.500000e-001 -1.500000e+002
         vertex -3.001011e+001 3.032681e+000 1.500000e+002
         vertex -1.498124e+001 7.500000e-001 1.500000e+002
      endloop
   endfacet
endsolid