solid VAWT2
   facet normal 8.480272e-001 5.299528e-001 0.000000e+000
      outer loop
         vertex -2.598076e+002 -1.500000e+002 -1.500000e+002
         vertex -2.598076e+002 -1.500000e+002 1.500000e+002
         vertex -2.512421e+002 -1.631874e+002 -1.500000e+002
      endloop
   endfacet
   facet normal 8.289695e-001 5.592939e-001 0.000000e+000
      outer loop
         vertex -2.512421e+002 -1.631874e+002 -1.500000e+002
         vertex -2.598076e+002 -1.500000e+002 1.500000e+002
         vertex -2.512421e+002 -1.631874e+002 1.500000e+002
      endloop
   endfacet
   facet normal 7.878871e-001 6.158198e-001 0.000000e+000
      outer loop
         vertex -2.512421e+002 -1.631874e+002 -1.500000e+002
         vertex -2.512421e+002 -1.631874e+002 1.500000e+002
         vertex -2.413431e+002 -1.754055e+002 -1.500000e+002
      endloop
   endfacet
   facet normal 7.658624e-001 6.430045e-001 0.000000e+000
      outer loop
         vertex -2.413431e+002 -1.754055e+002 -1.500000e+002
         vertex -2.512421e+002 -1.631874e+002 1.500000e+002
         vertex -2.413431e+002 -1.754055e+002 1.500000e+002
      endloop
   endfacet
   facet normal 7.190882e-001 6.949189e-001 0.000000e+000
      outer loop
         vertex -2.413431e+002 -1.754055e+002 -1.500000e+002
         vertex -2.413431e+002 -1.754055e+002 1.500000e+002
         vertex -2.302194e+002 -1.865203e+002 -1.500000e+002
      endloop
   endfacet
   facet normal 6.943386e-001 7.196485e-001 0.000000e+000
      outer loop
         vertex -2.302194e+002 -1.865203e+002 -1.500000e+002
         vertex -2.413431e+002 -1.754055e+002 1.500000e+002
         vertex -2.302194e+002 -1.865203e+002 1.500000e+002
      endloop
   endfacet
   facet normal 6.423865e-001 7.663808e-001 0.000000e+000
      outer loop
         vertex -2.302194e+002 -1.865203e+002 -1.500000e+002
         vertex -2.302194e+002 -1.865203e+002 1.500000e+002
         vertex -2.179933e+002 -1.964094e+002 -1.500000e+002
      endloop
   endfacet
   facet normal 6.151841e-001 7.883835e-001 0.000000e+000
      outer loop
         vertex -2.179933e+002 -1.964094e+002 -1.500000e+002
         vertex -2.302194e+002 -1.865203e+002 1.500000e+002
         vertex -2.179933e+002 -1.964094e+002 1.500000e+002
      endloop
   endfacet
   facet normal 5.586251e-001 8.294203e-001 0.000000e+000
      outer loop
         vertex -2.179933e+002 -1.964094e+002 -1.500000e+002
         vertex -2.179933e+002 -1.964094e+002 1.500000e+002
         vertex -2.047990e+002 -2.049643e+002 -1.500000e+002
      endloop
   endfacet
   facet normal 5.292686e-001 8.484543e-001 0.000000e+000
      outer loop
         vertex -2.047990e+002 -2.049643e+002 -1.500000e+002
         vertex -2.179933e+002 -1.964094e+002 1.500000e+002
         vertex -2.047990e+002 -2.049643e+002 1.500000e+002
      endloop
   endfacet
   facet normal 4.687244e-001 8.833445e-001 0.000000e+000
      outer loop
         vertex -2.047990e+002 -2.049643e+002 -1.500000e+002
         vertex -2.047990e+002 -2.049643e+002 1.500000e+002
         vertex -1.907816e+002 -2.120908e+002 -1.500000e+002
      endloop
   endfacet
   facet normal 4.375365e-001 8.992007e-001 0.000000e+000
      outer loop
         vertex -1.907816e+002 -2.120908e+002 -1.500000e+002
         vertex -2.047990e+002 -2.049643e+002 1.500000e+002
         vertex -1.907816e+002 -2.120908e+002 1.500000e+002
      endloop
   endfacet
   facet normal 3.736724e-001 9.275607e-001 0.000000e+000
      outer loop
         vertex -1.907816e+002 -2.120908e+002 -1.500000e+002
         vertex -1.907816e+002 -2.120908e+002 1.500000e+002
         vertex -1.760952e+002 -2.177107e+002 -1.500000e+002
      endloop
   endfacet
   facet normal 3.409960e-001 9.400647e-001 0.000000e+000
      outer loop
         vertex -1.760952e+002 -2.177107e+002 -1.500000e+002
         vertex -1.907816e+002 -2.120908e+002 1.500000e+002
         vertex -1.760952e+002 -2.177107e+002 1.500000e+002
      endloop
   endfacet
   facet normal 2.745138e-001 9.615832e-001 0.000000e+000
      outer loop
         vertex -1.760952e+002 -2.177107e+002 -1.500000e+002
         vertex -1.760952e+002 -2.177107e+002 1.500000e+002
         vertex -1.609012e+002 -2.217623e+002 -1.500000e+002
      endloop
   endfacet
   facet normal 2.407079e-001 9.705976e-001 0.000000e+000
      outer loop
         vertex -1.609012e+002 -2.217623e+002 -1.500000e+002
         vertex -1.760952e+002 -2.177107e+002 1.500000e+002
         vertex -1.609012e+002 -2.217623e+002 1.500000e+002
      endloop
   endfacet
   facet normal 1.723382e-001 9.850379e-001 0.000000e+000
      outer loop
         vertex -1.609012e+002 -2.217623e+002 -1.500000e+002
         vertex -1.609012e+002 -2.217623e+002 1.500000e+002
         vertex -1.453665e+002 -2.242009e+002 -1.500000e+002
      endloop
   endfacet
   facet normal 1.377744e-001 9.904637e-001 0.000000e+000
      outer loop
         vertex -1.453665e+002 -2.242009e+002 -1.500000e+002
         vertex -1.609012e+002 -2.217623e+002 1.500000e+002
         vertex -1.453665e+002 -2.242009e+002 1.500000e+002
      endloop
   endfacet
   facet normal 6.826871e-002 9.976670e-001 0.000000e+000
      outer loop
         vertex -1.453665e+002 -2.242009e+002 -1.500000e+002
         vertex -1.453665e+002 -2.242009e+002 1.500000e+002
         vertex -1.296618e+002 -2.249998e+002 -1.500000e+002
      endloop
   endfacet
   facet normal 3.332681e-002 9.994445e-001 0.000000e+000
      outer loop
         vertex -1.296618e+002 -2.249998e+002 -1.500000e+002
         vertex -1.453665e+002 -2.242009e+002 1.500000e+002
         vertex -1.296618e+002 -2.249998e+002 1.500000e+002
      endloop
   endfacet
   facet normal -3.655107e-002 9.993318e-001 0.000000e+000
      outer loop
         vertex -1.296618e+002 -2.249998e+002 -1.500000e+002
         vertex -1.296618e+002 -2.249998e+002 1.500000e+002
         vertex -1.139599e+002 -2.241502e+002 -1.500000e+002
      endloop
   endfacet
   facet normal -7.148706e-002 9.974416e-001 0.000000e+000
      outer loop
         vertex -1.139599e+002 -2.241502e+002 -1.500000e+002
         vertex -1.296618e+002 -2.249998e+002 1.500000e+002
         vertex -1.139599e+002 -2.241502e+002 1.500000e+002
      endloop
   endfacet
   facet normal -1.409692e-001 9.900140e-001 0.000000e+000
      outer loop
         vertex -1.139599e+002 -2.241502e+002 -1.500000e+002
         vertex -1.139599e+002 -2.241502e+002 1.500000e+002
         vertex -9.843310e+001 -2.216615e+002 -1.500000e+002
      endloop
   endfacet
   facet normal -1.755153e-001 9.844767e-001 0.000000e+000
      outer loop
         vertex -9.843310e+001 -2.216615e+002 -1.500000e+002
         vertex -1.139599e+002 -2.241502e+002 1.500000e+002
         vertex -9.843310e+001 -2.216615e+002 1.500000e+002
      endloop
   endfacet
   facet normal -2.438380e-001 9.698160e-001 0.000000e+000
      outer loop
         vertex -9.843310e+001 -2.216615e+002 -1.500000e+002
         vertex -9.843310e+001 -2.216615e+002 1.500000e+002
         vertex -8.325220e+001 -2.175610e+002 -1.500000e+002
      endloop
   endfacet
   facet normal -2.776146e-001 9.606925e-001 0.000000e+000
      outer loop
         vertex -8.325220e+001 -2.175610e+002 -1.500000e+002
         vertex -9.843310e+001 -2.216615e+002 1.500000e+002
         vertex -8.325220e+001 -2.175610e+002 1.500000e+002
      endloop
   endfacet
   facet normal -3.440270e-001 9.389598e-001 0.000000e+000
      outer loop
         vertex -8.325220e+001 -2.175610e+002 -1.500000e+002
         vertex -8.325220e+001 -2.175610e+002 1.500000e+002
         vertex -6.858400e+001 -2.118937e+002 -1.500000e+002
      endloop
   endfacet
   facet normal -3.766629e-001 9.263504e-001 0.000000e+000
      outer loop
         vertex -6.858400e+001 -2.118937e+002 -1.500000e+002
         vertex -8.325220e+001 -2.175610e+002 1.500000e+002
         vertex -6.858400e+001 -2.118937e+002 1.500000e+002
      endloop
   endfacet
   facet normal -4.404353e-001 8.977844e-001 0.000000e+000
      outer loop
         vertex -6.858400e+001 -2.118937e+002 -1.500000e+002
         vertex -6.858400e+001 -2.118937e+002 1.500000e+002
         vertex -5.458970e+001 -2.047220e+002 -1.500000e+002
      endloop
   endfacet
   facet normal -4.715718e-001 8.818277e-001 0.000000e+000
      outer loop
         vertex -5.458970e+001 -2.047220e+002 -1.500000e+002
         vertex -6.858400e+001 -2.118937e+002 1.500000e+002
         vertex -5.458970e+001 -2.047220e+002 1.500000e+002
      endloop
   endfacet
   facet normal -5.320032e-001 8.467423e-001 0.000000e+000
      outer loop
         vertex -5.458970e+001 -2.047220e+002 -1.500000e+002
         vertex -5.458970e+001 -2.047220e+002 1.500000e+002
         vertex -4.142311e+001 -1.961246e+002 -1.500000e+002
      endloop
   endfacet
   facet normal -5.612981e-001 8.276137e-001 0.000000e+000
      outer loop
         vertex -4.142311e+001 -1.961246e+002 -1.500000e+002
         vertex -5.458970e+001 -2.047220e+002 1.500000e+002
         vertex -4.142311e+001 -1.961246e+002 1.500000e+002
      endloop
   endfacet
   facet normal -6.177244e-001 7.863947e-001 0.000000e+000
      outer loop
         vertex -4.142311e+001 -1.961246e+002 -1.500000e+002
         vertex -4.142311e+001 -1.961246e+002 1.500000e+002
         vertex -2.922891e+001 -1.861961e+002 -1.500000e+002
      endloop
   endfacet
   facet normal -6.448557e-001 7.643043e-001 0.000000e+000
      outer loop
         vertex -2.922891e+001 -1.861961e+002 -1.500000e+002
         vertex -4.142311e+001 -1.961246e+002 1.500000e+002
         vertex -2.922891e+001 -1.861961e+002 1.500000e+002
      endloop
   endfacet
   facet normal -6.966568e-001 7.174046e-001 0.000000e+000
      outer loop
         vertex -2.922891e+001 -1.861961e+002 -1.500000e+002
         vertex -2.922891e+001 -1.861961e+002 1.500000e+002
         vertex -1.814112e+001 -1.750455e+002 -1.500000e+002
      endloop
   endfacet
   facet normal -7.213264e-001 6.925953e-001 0.000000e+000
      outer loop
         vertex -1.814112e+001 -1.750455e+002 -1.500000e+002
         vertex -2.922891e+001 -1.861961e+002 1.500000e+002
         vertex -1.814112e+001 -1.750455e+002 1.500000e+002
      endloop
   endfacet
   facet normal -7.679330e-001 6.405302e-001 0.000000e+000
      outer loop
         vertex -1.814112e+001 -1.750455e+002 -1.500000e+002
         vertex -1.814112e+001 -1.750455e+002 1.500000e+002
         vertex -8.281605e+000 -1.627954e+002 -1.500000e+002
      endloop
   endfacet
   facet normal -7.898698e-001 6.132746e-001 0.000000e+000
      outer loop
         vertex -8.281605e+000 -1.627954e+002 -1.500000e+002
         vertex -1.814112e+001 -1.750455e+002 1.500000e+002
         vertex -8.281605e+000 -1.627954e+002 1.500000e+002
      endloop
   endfacet
   facet normal -8.307696e-001 5.566165e-001 0.000000e+000
      outer loop
         vertex -8.281605e+000 -1.627954e+002 -1.500000e+002
         vertex -8.281605e+000 -1.627954e+002 1.500000e+002
         vertex 2.412912e-001 -1.495805e+002 -1.500000e+002
      endloop
   endfacet
   facet normal -8.497325e-001 5.272141e-001 0.000000e+000
      outer loop
         vertex 2.412912e-001 -1.495805e+002 -1.500000e+002
         vertex -8.281605e+000 -1.627954e+002 1.500000e+002
         vertex 2.412912e-001 -1.495805e+002 1.500000e+002
      endloop
   endfacet
   facet normal -8.844761e-001 4.665856e-001 0.000000e+000
      outer loop
         vertex 2.412912e-001 -1.495805e+002 -1.500000e+002
         vertex 2.412912e-001 -1.495805e+002 1.500000e+002
         vertex 7.333898e+000 -1.355459e+002 -1.500000e+002
      endloop
   endfacet
   facet normal -9.002567e-001 4.353595e-001 0.000000e+000
      outer loop
         vertex 7.333898e+000 -1.355459e+002 -1.500000e+002
         vertex 2.412912e-001 -1.495805e+002 1.500000e+002
         vertex 7.333898e+000 -1.355459e+002 1.500000e+002
      endloop
   endfacet
   facet normal -9.284622e-001 3.714269e-001 0.000000e+000
      outer loop
         vertex 7.333898e+000 -1.355459e+002 -1.500000e+002
         vertex 7.333898e+000 -1.355459e+002 1.500000e+002
         vertex 1.291827e+001 -1.208460e+002 -1.500000e+002
      endloop
   endfacet
   facet normal -9.408871e-001 3.387203e-001 0.000000e+000
      outer loop
         vertex 1.291827e+001 -1.208460e+002 -1.500000e+002
         vertex 7.333898e+000 -1.355459e+002 1.500000e+002
         vertex 1.291827e+001 -1.208460e+002 1.500000e+002
      endloop
   endfacet
   facet normal -9.622446e-001 2.721862e-001 0.000000e+000
      outer loop
         vertex 1.291827e+001 -1.208460e+002 -1.500000e+002
         vertex 1.291827e+001 -1.208460e+002 1.500000e+002
         vertex 1.693303e+001 -1.056422e+002 -1.500000e+002
      endloop
   endfacet
   facet normal -9.711772e-001 2.383586e-001 0.000000e+000
      outer loop
         vertex 1.693303e+001 -1.056422e+002 -1.500000e+002
         vertex 1.291827e+001 -1.208460e+002 1.500000e+002
         vertex 1.693303e+001 -1.056422e+002 1.500000e+002
      endloop
   endfacet
   facet normal -9.854520e-001 1.699542e-001 0.000000e+000
      outer loop
         vertex 1.693303e+001 -1.056422e+002 -1.500000e+002
         vertex 1.693303e+001 -1.056422e+002 1.500000e+002
         vertex 1.933406e+001 -9.010162e+001 -1.500000e+002
      endloop
   endfacet
   facet normal -9.907941e-001 1.353774e-001 0.000000e+000
      outer loop
         vertex 1.933406e+001 -9.010162e+001 -1.500000e+002
         vertex 1.693303e+001 -1.056422e+002 1.500000e+002
         vertex 1.933406e+001 -9.010162e+001 1.500000e+002
      endloop
   endfacet
   facet normal -9.978292e-001 6.585448e-002 0.000000e+000
      outer loop
         vertex 1.933406e+001 -9.010162e+001 -1.500000e+002
         vertex 1.933406e+001 -9.010162e+001 1.500000e+002
         vertex 2.009497e+001 -7.439508e+001 -1.500000e+002
      endloop
   endfacet
   facet normal -9.995222e-001 3.090838e-002 0.000000e+000
      outer loop
         vertex 2.009497e+001 -7.439508e+001 -1.500000e+002
         vertex 1.933406e+001 -9.010162e+001 1.500000e+002
         vertex 2.009497e+001 -7.439508e+001 1.500000e+002
      endloop
   endfacet
   facet normal -9.992404e-001 -3.896902e-002 0.000000e+000
      outer loop
         vertex 2.009497e+001 -7.439508e+001 -1.500000e+002
         vertex 2.009497e+001 -7.439508e+001 1.500000e+002
         vertex 1.920740e+001 -5.869520e+001 -1.500000e+002
      endloop
   endfacet
   facet normal -9.972656e-001 -7.390032e-002 0.000000e+000
      outer loop
         vertex 1.920740e+001 -5.869520e+001 -1.500000e+002
         vertex 2.009497e+001 -7.439508e+001 1.500000e+002
         vertex 1.920740e+001 -5.869520e+001 1.500000e+002
      endloop
   endfacet
   facet normal -9.896700e-001 -1.433643e-001 0.000000e+000
      outer loop
         vertex 1.920740e+001 -5.869520e+001 -1.500000e+002
         vertex 1.920740e+001 -5.869520e+001 1.500000e+002
         vertex 1.668111e+001 -4.317451e+001 -1.500000e+002
      endloop
   endfacet
   facet normal -9.840491e-001 -1.778969e-001 0.000000e+000
      outer loop
         vertex 1.668111e+001 -4.317451e+001 -1.500000e+002
         vertex 1.920740e+001 -5.869520e+001 1.500000e+002
         vertex 1.668111e+001 -4.317451e+001 1.500000e+002
      endloop
   endfacet
   facet normal -9.692231e-001 -2.461839e-001 0.000000e+000
      outer loop
         vertex 1.668111e+001 -4.317451e+001 -1.500000e+002
         vertex 1.668111e+001 -4.317451e+001 1.500000e+002
         vertex 1.254385e+001 -2.800357e+001 -1.500000e+002
      endloop
   endfacet
   facet normal -9.600180e-001 -2.799383e-001 0.000000e+000
      outer loop
         vertex 1.254385e+001 -2.800357e+001 -1.500000e+002
         vertex 1.668111e+001 -4.317451e+001 1.500000e+002
         vertex 1.254385e+001 -2.800357e+001 1.500000e+002
      endloop
   endfacet
   facet normal -9.381246e-001 -3.462981e-001 0.000000e+000
      outer loop
         vertex 1.254385e+001 -2.800357e+001 -1.500000e+002
         vertex 1.254385e+001 -2.800357e+001 1.500000e+002
         vertex 6.841100e+000 -1.334913e+001 -1.500000e+002
      endloop
   endfacet
   facet normal -9.254363e-001 -3.789034e-001 0.000000e+000
      outer loop
         vertex 6.841100e+000 -1.334913e+001 -1.500000e+002
         vertex 1.254385e+001 -2.800357e+001 1.500000e+002
         vertex 6.841100e+000 -1.334913e+001 1.500000e+002
      endloop
   endfacet
endsolid