solid VAWT3
   facet normal -8.829662e-001 4.694367e-001 0.000000e+000
      outer loop
         vertex 2.598076e+002 -1.500000e+002 -1.500000e+002
         vertex 2.598076e+002 -1.500000e+002 1.500000e+002
         vertex 2.669455e+002 -1.359884e+002 -1.500000e+002
      endloop
   endfacet
   facet normal -8.988474e-001 4.382617e-001 0.000000e+000
      outer loop
         vertex 2.669455e+002 -1.359884e+002 -1.500000e+002
         vertex 2.598076e+002 -1.500000e+002 1.500000e+002
         vertex 2.669455e+002 -1.359884e+002 1.500000e+002
      endloop
   endfacet
   facet normal -9.272591e-001 3.744204e-001 0.000000e+000
      outer loop
         vertex 2.669455e+002 -1.359884e+002 -1.500000e+002
         vertex 2.669455e+002 -1.359884e+002 1.500000e+002
         vertex 2.725772e+002 -1.213065e+002 -1.500000e+002
      endloop
   endfacet
   facet normal -9.397894e-001 3.417541e-001 0.000000e+000
      outer loop
         vertex 2.725772e+002 -1.213065e+002 -1.500000e+002
         vertex 2.669455e+002 -1.359884e+002 1.500000e+002
         vertex 2.725772e+002 -1.213065e+002 1.500000e+002
      endloop
   endfacet
   facet normal -9.613615e-001 2.752892e-001 0.000000e+000
      outer loop
         vertex 2.725772e+002 -1.213065e+002 -1.500000e+002
         vertex 2.725772e+002 -1.213065e+002 1.500000e+002
         vertex 2.766410e+002 -1.061157e+002 -1.500000e+002
      endloop
   endfacet
   facet normal -9.704031e-001 2.414906e-001 0.000000e+000
      outer loop
         vertex 2.766410e+002 -1.061157e+002 -1.500000e+002
         vertex 2.725772e+002 -1.213065e+002 1.500000e+002
         vertex 2.766410e+002 -1.061157e+002 1.500000e+002
      endloop
   endfacet
   facet normal -9.848985e-001 1.731327e-001 0.000000e+000
      outer loop
         vertex 2.766410e+002 -1.061157e+002 -1.500000e+002
         vertex 2.766410e+002 -1.061157e+002 1.500000e+002
         vertex 2.790922e+002 -9.058301e+001 -1.500000e+002
      endloop
   endfacet
   facet normal -9.903522e-001 1.385732e-001 0.000000e+000
      outer loop
         vertex 2.790922e+002 -9.058301e+001 -1.500000e+002
         vertex 2.766410e+002 -1.061157e+002 1.500000e+002
         vertex 2.790922e+002 -9.058301e+001 1.500000e+002
      endloop
   endfacet
   facet normal -9.976116e-001 6.907336e-002 0.000000e+000
      outer loop
         vertex 2.790922e+002 -9.058301e+001 -1.500000e+002
         vertex 2.790922e+002 -9.058301e+001 1.500000e+002
         vertex 2.799038e+002 -7.487901e+001 -1.500000e+002
      endloop
   endfacet
   facet normal -9.994173e-001 3.413291e-002 0.000000e+000
      outer loop
         vertex 2.799038e+002 -7.487901e+001 -1.500000e+002
         vertex 2.790922e+002 -9.058301e+001 1.500000e+002
         vertex 2.799038e+002 -7.487901e+001 1.500000e+002
      endloop
   endfacet
   facet normal -9.993610e-001 -3.574504e-002 0.000000e+000
      outer loop
         vertex 2.799038e+002 -7.487901e+001 -1.500000e+002
         vertex 2.799038e+002 -7.487901e+001 1.500000e+002
         vertex 2.790669e+002 -5.917635e+001 -1.500000e+002
      endloop
   endfacet
   facet normal -9.974989e-001 -7.068254e-002 0.000000e+000
      outer loop
         vertex 2.790669e+002 -5.917635e+001 -1.500000e+002
         vertex 2.799038e+002 -7.487901e+001 1.500000e+002
         vertex 2.790669e+002 -5.917635e+001 1.500000e+002
      endloop
   endfacet
   facet normal -9.901274e-001 -1.401706e-001 0.000000e+000
      outer loop
         vertex 2.790669e+002 -5.917635e+001 -1.500000e+002
         vertex 2.790669e+002 -5.917635e+001 1.500000e+002
         vertex 2.765906e+002 -4.364759e+001 -1.500000e+002
      endloop
   endfacet
   facet normal -9.846179e-001 -1.747212e-001 0.000000e+000
      outer loop
         vertex 2.765906e+002 -4.364759e+001 -1.500000e+002
         vertex 2.790669e+002 -5.917635e+001 1.500000e+002
         vertex 2.765906e+002 -4.364759e+001 1.500000e+002
      endloop
   endfacet
   facet normal -9.700123e-001 -2.430557e-001 0.000000e+000
      outer loop
         vertex 2.765906e+002 -4.364759e+001 -1.500000e+002
         vertex 2.765906e+002 -4.364759e+001 1.500000e+002
         vertex 2.725023e+002 -2.846339e+001 -1.500000e+002
      endloop
   endfacet
   facet normal -9.609162e-001 -2.768397e-001 0.000000e+000
      outer loop
         vertex 2.725023e+002 -2.846339e+001 -1.500000e+002
         vertex 2.765906e+002 -4.364759e+001 1.500000e+002
         vertex 2.725023e+002 -2.846339e+001 1.500000e+002
      endloop
   endfacet
   facet normal -9.392369e-001 -3.432696e-001 0.000000e+000
      outer loop
         vertex 2.725023e+002 -2.846339e+001 -1.500000e+002
         vertex 2.725023e+002 -2.846339e+001 1.500000e+002
         vertex 2.668469e+002 -1.379062e+001 -1.500000e+002
      endloop
   endfacet
   facet normal -9.266539e-001 -3.759157e-001 0.000000e+000
      outer loop
         vertex 2.668469e+002 -1.379062e+001 -1.500000e+002
         vertex 2.725023e+002 -2.846339e+001 1.500000e+002
         vertex 2.668469e+002 -1.379062e+001 1.500000e+002
      endloop
   endfacet
   facet normal -8.981393e-001 -4.397111e-001 0.000000e+000
      outer loop
         vertex 2.668469e+002 -1.379062e+001 -1.500000e+002
         vertex 2.668469e+002 -1.379062e+001 1.500000e+002
         vertex 2.596865e+002 2.094525e-001 -1.500000e+002
      endloop
   endfacet
   facet normal -8.822078e-001 -4.708604e-001 0.000000e+000
      outer loop
         vertex 2.596865e+002 2.094525e-001 -1.500000e+002
         vertex 2.668469e+002 -1.379062e+001 1.500000e+002
         vertex 2.596865e+002 2.094525e-001 1.500000e+002
      endloop
   endfacet
   facet normal -8.471712e-001 -5.313201e-001 0.000000e+000
      outer loop
         vertex 2.596865e+002 2.094525e-001 -1.500000e+002
         vertex 2.596865e+002 2.094525e-001 1.500000e+002
         vertex 2.510997e+002 1.338298e+001 -1.500000e+002
      endloop
   endfacet
   facet normal -8.280662e-001 -5.606303e-001 0.000000e+000
      outer loop
         vertex 2.510997e+002 1.338298e+001 -1.500000e+002
         vertex 2.596865e+002 2.094525e-001 1.500000e+002
         vertex 2.510997e+002 1.338298e+001 1.500000e+002
      endloop
   endfacet
   facet normal -7.868927e-001 -6.170899e-001 0.000000e+000
      outer loop
         vertex 2.510997e+002 1.338298e+001 -1.500000e+002
         vertex 2.510997e+002 1.338298e+001 1.500000e+002
         vertex 2.411810e+002 2.558518e+001 -1.500000e+002
      endloop
   endfacet
   facet normal -7.648242e-001 -6.442390e-001 0.000000e+000
      outer loop
         vertex 2.411810e+002 2.558518e+001 -1.500000e+002
         vertex 2.510997e+002 1.338298e+001 1.500000e+002
         vertex 2.411810e+002 2.558518e+001 1.500000e+002
      endloop
   endfacet
   facet normal -7.179663e-001 -6.960779e-001 0.000000e+000
      outer loop
         vertex 2.411810e+002 2.558518e+001 -1.500000e+002
         vertex 2.411810e+002 2.558518e+001 1.500000e+002
         vertex 2.300394e+002 3.668196e+001 -1.500000e+002
      endloop
   endfacet
   facet normal -6.931768e-001 -7.207676e-001 0.000000e+000
      outer loop
         vertex 2.300394e+002 3.668196e+001 -1.500000e+002
         vertex 2.411810e+002 2.558518e+001 1.500000e+002
         vertex 2.300394e+002 3.668196e+001 1.500000e+002
      endloop
   endfacet
   facet normal -6.411495e-001 -7.674161e-001 0.000000e+000
      outer loop
         vertex 2.300394e+002 3.668196e+001 -1.500000e+002
         vertex 2.300394e+002 3.668196e+001 1.500000e+002
         vertex 2.177973e+002 4.655135e+001 -1.500000e+002
      endloop
   endfacet
   facet normal -6.139115e-001 -7.893749e-001 0.000000e+000
      outer loop
         vertex 2.177973e+002 4.655135e+001 -1.500000e+002
         vertex 2.300394e+002 3.668196e+001 1.500000e+002
         vertex 2.177973e+002 4.655135e+001 1.500000e+002
      endloop
   endfacet
   facet normal -5.572864e-001 -8.303204e-001 0.000000e+000
      outer loop
         vertex 2.177973e+002 4.655135e+001 -1.500000e+002
         vertex 2.177973e+002 4.655135e+001 1.500000e+002
         vertex 2.045893e+002 5.508491e+001 -1.500000e+002
      endloop
   endfacet
   facet normal -5.278993e-001 -8.493070e-001 0.000000e+000
      outer loop
         vertex 2.045893e+002 5.508491e+001 -1.500000e+002
         vertex 2.177973e+002 4.655135e+001 1.500000e+002
         vertex 2.045893e+002 5.508491e+001 1.500000e+002
      endloop
   endfacet
   facet normal -4.672988e-001 -8.840994e-001 0.000000e+000
      outer loop
         vertex 2.045893e+002 5.508491e+001 -1.500000e+002
         vertex 2.045893e+002 5.508491e+001 1.500000e+002
         vertex 1.905604e+002 6.218883e+001 -1.500000e+002
      endloop
   endfacet
   facet normal -4.360855e-001 -8.999053e-001 0.000000e+000
      outer loop
         vertex 1.905604e+002 6.218883e+001 -1.500000e+002
         vertex 2.045893e+002 5.508491e+001 1.500000e+002
         vertex 1.905604e+002 6.218883e+001 1.500000e+002
      endloop
   endfacet
   facet normal -3.721756e-001 -9.281623e-001 0.000000e+000
      outer loop
         vertex 1.905604e+002 6.218883e+001 -1.500000e+002
         vertex 1.905604e+002 6.218883e+001 1.500000e+002
         vertex 1.758650e+002 6.778506e+001 -1.500000e+002
      endloop
   endfacet
   facet normal -3.394791e-001 -9.406136e-001 0.000000e+000
      outer loop
         vertex 1.758650e+002 6.778506e+001 -1.500000e+002
         vertex 1.905604e+002 6.218883e+001 1.500000e+002
         vertex 1.758650e+002 6.778506e+001 1.500000e+002
      endloop
   endfacet
   facet normal -2.729622e-001 -9.620248e-001 0.000000e+000
      outer loop
         vertex 1.758650e+002 6.778506e+001 -1.500000e+002
         vertex 1.758650e+002 6.778506e+001 1.500000e+002
         vertex 1.606644e+002 7.181208e+001 -1.500000e+002
      endloop
   endfacet
   facet normal -2.391419e-001 -9.709846e-001 0.000000e+000
      outer loop
         vertex 1.606644e+002 7.181208e+001 -1.500000e+002
         vertex 1.758650e+002 6.778506e+001 1.500000e+002
         vertex 1.606644e+002 7.181208e+001 1.500000e+002
      endloop
   endfacet
   facet normal -1.707490e-001 -9.853145e-001 0.000000e+000
      outer loop
         vertex 1.606644e+002 7.181208e+001 -1.500000e+002
         vertex 1.606644e+002 7.181208e+001 1.500000e+002
         vertex 1.451258e+002 7.422564e+001 -1.500000e+002
      endloop
   endfacet
   facet normal -1.361765e-001 -9.906846e-001 0.000000e+000
      outer loop
         vertex 1.451258e+002 7.422564e+001 -1.500000e+002
         vertex 1.606644e+002 7.181208e+001 1.500000e+002
         vertex 1.451258e+002 7.422564e+001 1.500000e+002
      endloop
   endfacet
   facet normal -6.665926e-002 -9.977758e-001 0.000000e+000
      outer loop
         vertex 1.451258e+002 7.422564e+001 -1.500000e+002
         vertex 1.451258e+002 7.422564e+001 1.500000e+002
         vertex 1.294199e+002 7.499922e+001 -1.500000e+002
      endloop
   endfacet
   facet normal -3.171455e-002 -9.994970e-001 0.000000e+000
      outer loop
         vertex 1.294199e+002 7.499922e+001 -1.500000e+002
         vertex 1.451258e+002 7.422564e+001 1.500000e+002
         vertex 1.294199e+002 7.499922e+001 1.500000e+002
      endloop
   endfacet
   facet normal 3.816307e-002 -9.992715e-001 0.000000e+000
      outer loop
         vertex 1.294199e+002 7.499922e+001 -1.500000e+002
         vertex 1.294199e+002 7.499922e+001 1.500000e+002
         vertex 1.137193e+002 7.412431e+001 -1.500000e+002
      endloop
   endfacet
   facet normal 7.309595e-002 -9.973249e-001 0.000000e+000
      outer loop
         vertex 1.137193e+002 7.412431e+001 -1.500000e+002
         vertex 1.294199e+002 7.499922e+001 1.500000e+002
         vertex 1.137193e+002 7.412431e+001 1.500000e+002
      endloop
   endfacet
   facet normal 1.425660e-001 -9.897853e-001 0.000000e+000
      outer loop
         vertex 1.137193e+002 7.412431e+001 -1.500000e+002
         vertex 1.137193e+002 7.412431e+001 1.500000e+002
         vertex 9.819656e+001 7.161054e+001 -1.500000e+002
      endloop
   endfacet
   facet normal 1.771031e-001 -9.841923e-001 0.000000e+000
      outer loop
         vertex 9.819656e+001 7.161054e+001 -1.500000e+002
         vertex 1.137193e+002 7.412431e+001 1.500000e+002
         vertex 9.819656e+001 7.161054e+001 1.500000e+002
      endloop
   endfacet
   facet normal 2.454021e-001 -9.694214e-001 0.000000e+000
      outer loop
         vertex 9.819656e+001 7.161054e+001 -1.500000e+002
         vertex 9.819656e+001 7.161054e+001 1.500000e+002
         vertex 8.302229e+001 6.748552e+001 -1.500000e+002
      endloop
   endfacet
   facet normal 2.791640e-001 -9.602435e-001 0.000000e+000
      outer loop
         vertex 8.302229e+001 6.748552e+001 -1.500000e+002
         vertex 9.819656e+001 7.161054e+001 1.500000e+002
         vertex 8.302229e+001 6.748552e+001 1.500000e+002
      endloop
   endfacet
   facet normal 3.455413e-001 -9.384035e-001 0.000000e+000
      outer loop
         vertex 8.302229e+001 6.748552e+001 -1.500000e+002
         vertex 8.302229e+001 6.748552e+001 1.500000e+002
         vertex 6.836326e+001 6.179459e+001 -1.500000e+002
      endloop
   endfacet
   facet normal 3.781568e-001 -9.257416e-001 0.000000e+000
      outer loop
         vertex 6.836326e+001 6.179459e+001 -1.500000e+002
         vertex 8.302229e+001 6.748552e+001 1.500000e+002
         vertex 6.836326e+001 6.179459e+001 1.500000e+002
      endloop
   endfacet
   facet normal 4.418830e-001 -8.970727e-001 0.000000e+000
      outer loop
         vertex 6.836326e+001 6.179459e+001 -1.500000e+002
         vertex 6.836326e+001 6.179459e+001 1.500000e+002
         vertex 5.438055e+001 5.460030e+001 -1.500000e+002
      endloop
   endfacet
   facet normal 4.729936e-001 -8.810658e-001 0.000000e+000
      outer loop
         vertex 5.438055e+001 5.460030e+001 -1.500000e+002
         vertex 6.836326e+001 6.179459e+001 1.500000e+002
         vertex 5.438055e+001 5.460030e+001 1.500000e+002
      endloop
   endfacet
   facet normal 5.333684e-001 -8.458831e-001 0.000000e+000
      outer loop
         vertex 5.438055e+001 5.460030e+001 -1.500000e+002
         vertex 5.438055e+001 5.460030e+001 1.500000e+002
         vertex 4.122783e+001 4.598170e+001 -1.500000e+002
      endloop
   endfacet
   facet normal 5.626323e-001 -8.267072e-001 0.000000e+000
      outer loop
         vertex 4.122783e+001 4.598170e+001 -1.500000e+002
         vertex 5.438055e+001 5.460030e+001 1.500000e+002
         vertex 4.122783e+001 4.598170e+001 1.500000e+002
      endloop
   endfacet
   facet normal 6.189921e-001 -7.853973e-001 0.000000e+000
      outer loop
         vertex 4.122783e+001 4.598170e+001 -1.500000e+002
         vertex 4.122783e+001 4.598170e+001 1.500000e+002
         vertex 2.904967e+001 3.603352e+001 -1.500000e+002
      endloop
   endfacet
   facet normal 6.460878e-001 -7.632632e-001 0.000000e+000
      outer loop
         vertex 2.904967e+001 3.603352e+001 -1.500000e+002
         vertex 4.122783e+001 4.598170e+001 1.500000e+002
         vertex 2.904967e+001 3.603352e+001 1.500000e+002
      endloop
   endfacet
   facet normal 6.978131e-001 -7.162799e-001 0.000000e+000
      outer loop
         vertex 2.904967e+001 3.603352e+001 -1.500000e+002
         vertex 2.904967e+001 3.603352e+001 1.500000e+002
         vertex 1.797988e+001 2.486508e+001 -1.500000e+002
      endloop
   endfacet
   facet normal 7.224427e-001 -6.914307e-001 0.000000e+000
      outer loop
         vertex 1.797988e+001 2.486508e+001 -1.500000e+002
         vertex 2.904967e+001 3.603352e+001 1.500000e+002
         vertex 1.797988e+001 2.486508e+001 1.500000e+002
      endloop
   endfacet
   facet normal 7.689652e-001 -6.392906e-001 0.000000e+000
      outer loop
         vertex 1.797988e+001 2.486508e+001 -1.500000e+002
         vertex 1.797988e+001 2.486508e+001 1.500000e+002
         vertex 8.140139e+000 1.259913e+001 -1.500000e+002
      endloop
   endfacet
   facet normal 7.908581e-001 -6.119996e-001 0.000000e+000
      outer loop
         vertex 8.140139e+000 1.259913e+001 -1.500000e+002
         vertex 1.797988e+001 2.486508e+001 1.500000e+002
         vertex 8.140139e+000 1.259913e+001 1.500000e+002
      endloop
   endfacet
endsolid