solid VAWT3
   facet normal 5.000000e-001 8.660254e-001 0.000000e+000
      outer loop
         vertex 1.299038e+001 -7.500000e+000 1.500000e+002
         vertex 2.598076e+002 -1.500000e+002 1.500000e+002
         vertex 1.299038e+001 -7.500000e+000 -1.500000e+002
      endloop
   endfacet
   facet normal 5.000000e-001 8.660254e-001 0.000000e+000
      outer loop
         vertex 1.299038e+001 -7.500000e+000 -1.500000e+002
         vertex 2.598076e+002 -1.500000e+002 1.500000e+002
         vertex 2.598076e+002 -1.500000e+002 -1.500000e+002
      endloop
   endfacet
endsolid