solid VAWT1
   facet normal -1.000000e+000 0.000000e+000 0.000000e+000
      outer loop
         vertex 0.000000e+000 1.500000e+001 1.500000e+002
         vertex 0.000000e+000 3.000000e+002 1.500000e+002
         vertex 0.000000e+000 1.500000e+001 -1.500000e+002
      endloop
   endfacet
   facet normal -1.000000e+000 0.000000e+000 0.000000e+000
      outer loop
         vertex 0.000000e+000 1.500000e+001 -1.500000e+002
         vertex 0.000000e+000 3.000000e+002 1.500000e+002
         vertex 0.000000e+000 3.000000e+002 -1.500000e+002
      endloop
   endfacet
endsolid